<?xml version="1.0" encoding="UTF-8"?>
<!DOCTYPE svg PUBLIC "-//W3C//DTD SVG 1.1//EN" "http://www.w3.org/Graphics/SVG/1.1/DTD/svg11.dtd">
<!-- Creator: CorelDRAW 2019 (64-Bit) -->
<svg xmlns="http://www.w3.org/2000/svg" xml:space="preserve" width="11.5924mm" height="12.5917mm" version="1.1" style="shape-rendering:geometricPrecision; text-rendering:geometricPrecision; image-rendering:optimizeQuality; fill-rule:evenodd; clip-rule:evenodd"
viewBox="0 0 101.86 110.64"
 xmlns:xlink="http://www.w3.org/1999/xlink">
 <defs>
  <style type="text/css">
   <![CDATA[
    .fil0 {fill:url(#id0)}
   ]]>
  </style>
  <linearGradient id="id0" gradientUnits="userSpaceOnUse" x1="10.67" y1="85.21" x2="253.04" y2="-49.1">
   <stop offset="0" style="stop-opacity:1; stop-color:#F56857"/>
   <stop offset="1" style="stop-opacity:1; stop-color:white"/>
  </linearGradient>
 </defs>
 <g id="Layer_x0020_1">
  <metadata id="CorelCorpID_0Corel-Layer"/>
  <g id="_2377146422880">
   <g>
    <path class="fil0" d="M101.81 26.08c0,-0.42 -0.09,-0.84 -0.28,-1.24 -0.37,-0.79 -1.1,-1.33 -1.89,-1.49l-47.57 -23.07c-0.77,-0.37 -1.68,-0.37 -2.45,0l-48.03 23.28c-0.93,0.44 -1.54,1.38 -1.59,2.43l0 0.02c0,0.02 0,0.05 0,0.09l0 58.42c0,1.07 0.61,2.06 1.59,2.52l48.03 23.28c0.02,0 0.02,0 0.05,0.02 0.07,0.02 0.14,0.05 0.21,0.09 0.02,0 0.05,0.02 0.09,0.02 0.07,0.02 0.14,0.05 0.21,0.07 0.02,0 0.05,0.02 0.07,0.02 0.07,0.02 0.16,0.02 0.23,0.05 0.02,0 0.05,0 0.07,0 0.09,0 0.21,0.02 0.3,0.02 0.09,0 0.21,0 0.3,-0.02 0.02,0 0.05,0 0.07,0 0.07,0 0.16,-0.02 0.23,-0.05 0.02,0 0.05,-0.02 0.07,-0.02 0.07,-0.02 0.14,-0.05 0.21,-0.07 0.02,0 0.05,-0.02 0.09,-0.02 0.07,-0.02 0.14,-0.05 0.21,-0.09 0.02,0 0.02,0 0.05,-0.02l48.17 -23.35c0.96,-0.47 1.59,-1.45 1.59,-2.52l0 -58.31c-0.05,-0.02 -0.05,-0.05 -0.05,-0.07zm-50.98 -20.18l41.66 20.2 -15.34 7.45 -41.66 -20.2 15.34 -7.45zm0 40.4l-41.66 -20.2 19.9 -9.64 41.66 20.2 -19.89 9.64zm-45.23 -15.69l42.43 20.57 0 52.14 -42.43 -20.57 0 -52.14zm48.03 72.72l0 -52.14 19.92 -9.67 0 13.64c0,1.54 1.26,2.8 2.8,2.8 1.54,0 2.8,-1.26 2.8,-2.8l0 -16.37 17.05 -8.27 0 52.14 -42.57 20.67z"/>
   </g>
   <g>
   </g>
   <g>
   </g>
   <g>
   </g>
   <g>
   </g>
   <g>
   </g>
   <g>
   </g>
   <g>
   </g>
   <g>
   </g>
   <g>
   </g>
   <g>
   </g>
   <g>
   </g>
   <g>
   </g>
   <g>
   </g>
   <g>
   </g>
   <g>
   </g>
  </g>
 </g>
</svg>
