<?xml version="1.0" encoding="UTF-8"?>
<!DOCTYPE svg PUBLIC "-//W3C//DTD SVG 1.1//EN" "http://www.w3.org/Graphics/SVG/1.1/DTD/svg11.dtd">
<!-- Creator: CorelDRAW 2019 (64-Bit) -->
<svg xmlns="http://www.w3.org/2000/svg" xml:space="preserve" width="11.3234mm" height="11.3234mm" version="1.1" style="shape-rendering:geometricPrecision; text-rendering:geometricPrecision; image-rendering:optimizeQuality; fill-rule:evenodd; clip-rule:evenodd"
viewBox="0 0 182.24 182.24"
 xmlns:xlink="http://www.w3.org/1999/xlink">
 <defs>
  <style type="text/css">
   <![CDATA[
    .fil3 {fill:url(#id0);fill-rule:nonzero}
    .fil0 {fill:url(#id1);fill-rule:nonzero}
    .fil1 {fill:url(#id2);fill-rule:nonzero}
    .fil2 {fill:url(#id3);fill-rule:nonzero}
   ]]>
  </style>
  <linearGradient id="id0" gradientUnits="userSpaceOnUse" x1="54.93" y1="148.34" x2="443.45" y2="-155.28">
   <stop offset="0" style="stop-opacity:1; stop-color:#F56857"/>
   <stop offset="1" style="stop-opacity:1; stop-color:white"/>
  </linearGradient>
  <linearGradient id="id1" gradientUnits="userSpaceOnUse" xlink:href="#id0" x1="54.91" y1="148.37" x2="443.53" y2="-155.34">
  </linearGradient>
  <linearGradient id="id2" gradientUnits="userSpaceOnUse" xlink:href="#id0" x1="54.91" y1="148.37" x2="443.53" y2="-155.34">
  </linearGradient>
  <linearGradient id="id3" gradientUnits="userSpaceOnUse" xlink:href="#id0" x1="54.91" y1="148.37" x2="443.53" y2="-155.33">
  </linearGradient>
 </defs>
 <g id="Layer_x0020_1">
  <metadata id="CorelCorpID_0Corel-Layer"/>
  <g id="_2377150231536">
   <g id="surface1">
    <path class="fil0" d="M91.03 137.42c-12.36,0 -23.98,-4.81 -32.72,-13.55 -18.04,-18.04 -18.04,-47.4 0,-65.44 6.22,-6.22 14.02,-10.52 22.56,-12.43 8.31,-1.86 16.96,-1.41 25.01,1.32 1.86,0.63 2.86,2.65 2.23,4.51 -0.63,1.86 -2.65,2.86 -4.51,2.23 -14.23,-4.81 -29.65,-1.21 -40.26,9.4 -15.27,15.27 -15.27,40.11 0,55.37 7.4,7.4 17.23,11.47 27.69,11.47 10.46,0 20.29,-4.07 27.68,-11.47 10.72,-10.72 14.29,-26.86 9.1,-41.12 -0.67,-1.85 0.28,-3.89 2.13,-4.56 1.85,-0.67 3.89,0.28 4.56,2.13 6.14,16.84 1.91,35.92 -10.76,48.59 -8.74,8.74 -20.36,13.55 -32.72,13.55zm0 0z"/>
    <path class="fil1" d="M106.78 182.24l-31.32 0c-1.97,0 -3.56,-1.59 -3.56,-3.56l0 -15.21c-6.43,-1.7 -12.59,-4.25 -18.35,-7.6l-10.75 10.75c-0.67,0.67 -1.57,1.04 -2.52,1.04 -0.94,0 -1.85,-0.37 -2.52,-1.04l-22.15 -22.15c-0.67,-0.67 -1.04,-1.57 -1.04,-2.52 0,-0.94 0.37,-1.85 1.04,-2.52l10.75 -10.75c-3.35,-5.76 -5.9,-11.91 -7.6,-18.35l-15.21 0c-1.97,0 -3.56,-1.59 -3.56,-3.56l0 -31.32c0,-1.97 1.59,-3.56 3.56,-3.56l15.23 0c1.71,-6.42 4.26,-12.56 7.61,-18.32l-10.79 -10.79c-0.67,-0.67 -1.04,-1.57 -1.04,-2.52 0,-0.94 0.37,-1.85 1.04,-2.52l22.15 -22.15c0.67,-0.67 1.57,-1.04 2.52,-1.04 0.94,0 1.85,0.37 2.52,1.04l10.81 10.81c5.75,-3.33 11.88,-5.87 18.29,-7.57l0 -15.3c0,-1.97 1.59,-3.56 3.56,-3.56l31.32 0c1.97,0 3.56,1.59 3.56,3.56l0 15.32c6.4,1.7 12.52,4.24 18.26,7.58l10.84 -10.84c0.67,-0.67 1.57,-1.04 2.52,-1.04 0.94,0 1.85,0.37 2.52,1.04l22.15 22.15c0.67,0.67 1.04,1.57 1.04,2.52 0,0.94 -0.37,1.85 -1.04,2.52l-10.84 10.84c3.33,5.74 5.88,11.86 7.58,18.26l15.32 0c1.97,0 3.56,1.59 3.56,3.56l0 31.32c0,1.97 -1.59,3.56 -3.56,3.56l-15.3 0c-1.69,6.41 -4.23,12.54 -7.57,18.29l10.81 10.81c0.67,0.67 1.04,1.57 1.04,2.52 0,0.94 -0.37,1.85 -1.04,2.52l-22.15 22.15c-1.39,1.39 -3.64,1.39 -5.03,0l-10.79 -10.79c-5.75,3.35 -11.9,5.9 -18.32,7.61l0 15.23c0,1.97 -1.59,3.56 -3.56,3.56zm-27.76 -7.12l24.2 0 0 -14.46c0,-1.67 1.15,-3.11 2.78,-3.47 7.56,-1.7 14.73,-4.68 21.29,-8.84 1.41,-0.89 3.25,-0.69 4.43,0.49l10.25 10.25 17.11 -17.11 -10.27 -10.27c-1.18,-1.18 -1.38,-3.01 -0.49,-4.42 4.15,-6.56 7.11,-13.72 8.8,-21.27 0.36,-1.63 1.81,-2.78 3.47,-2.78l14.54 0 0 -24.2 -14.56 0c-1.67,0 -3.11,-1.15 -3.47,-2.78 -1.7,-7.54 -4.66,-14.69 -8.81,-21.24 -0.89,-1.41 -0.69,-3.24 0.49,-4.42l10.3 -10.3 -17.11 -17.11 -10.3 10.3c-1.18,1.18 -3.01,1.38 -4.42,0.49 -6.55,-4.15 -13.69,-7.11 -21.24,-8.81 -1.63,-0.37 -2.78,-1.81 -2.78,-3.47l0 -14.56 -24.2 0 0 14.54c0,1.67 -1.16,3.11 -2.78,3.47 -7.55,1.69 -14.71,4.65 -21.27,8.8 -1.41,0.89 -3.24,0.69 -4.42,-0.49l-10.27 -10.27 -17.11 17.11 10.25 10.25c1.18,1.18 1.38,3.02 0.49,4.43 -4.17,6.56 -7.14,13.73 -8.85,21.29 -0.37,1.63 -1.81,2.78 -3.47,2.78l-14.47 0 0 24.2 14.44 0c1.67,0 3.11,1.16 3.47,2.78 1.69,7.58 4.67,14.75 8.83,21.32 0.89,1.41 0.69,3.24 -0.49,4.42l-10.21 10.21 17.11 17.11 10.21 -10.21c1.18,-1.18 3.01,-1.38 4.42,-0.49 6.57,4.16 13.75,7.13 21.32,8.83 1.63,0.36 2.78,1.81 2.78,3.47l0 14.44 0 0zm0 0z"/>
    <path class="fil2" d="M91.07 116.08c-13.74,0 -24.92,-11.18 -24.92,-24.92 0,-13.74 11.18,-24.92 24.92,-24.92 13.74,0 24.92,11.18 24.92,24.92 0,13.74 -11.18,24.92 -24.92,24.92zm0 -42.71c-9.81,0 -17.8,7.98 -17.8,17.8 0,9.81 7.99,17.8 17.8,17.8 9.81,0 17.8,-7.99 17.8,-17.8 0,-9.81 -7.98,-17.8 -17.8,-17.8zm0 0z"/>
    <path class="fil3" d="M121.15 64.59c-0.91,0 -1.82,-0.35 -2.52,-1.04 -1.39,-1.39 -1.39,-3.64 -0,-5.03l0.17 -0.17c1.39,-1.39 3.64,-1.39 5.03,-0 1.39,1.39 1.39,3.64 0,5.03l-0.17 0.17c-0.7,0.7 -1.61,1.04 -2.52,1.04zm0 0z"/>
   </g>
  </g>
 </g>
</svg>
