<?xml version="1.0" encoding="UTF-8"?>
<!DOCTYPE svg PUBLIC "-//W3C//DTD SVG 1.1//EN" "http://www.w3.org/Graphics/SVG/1.1/DTD/svg11.dtd">
<!-- Creator: CorelDRAW 2019 (64-Bit) -->
<svg xmlns="http://www.w3.org/2000/svg" xml:space="preserve" width="11.0914mm" height="10.398mm" version="1.1" style="shape-rendering:geometricPrecision; text-rendering:geometricPrecision; image-rendering:optimizeQuality; fill-rule:evenodd; clip-rule:evenodd"
viewBox="0 0 64.35 60.33"
 xmlns:xlink="http://www.w3.org/1999/xlink">
 <defs>
  <style type="text/css">
   <![CDATA[
    .fil0 {fill:url(#id0)}
    .fil2 {fill:url(#id1)}
    .fil5 {fill:url(#id2)}
    .fil3 {fill:url(#id3)}
    .fil4 {fill:url(#id4)}
    .fil1 {fill:url(#id5)}
   ]]>
  </style>
  <linearGradient id="id0" gradientUnits="userSpaceOnUse" x1="6.32" y1="48.63" x2="175.75" y2="-22.13">
   <stop offset="0" style="stop-opacity:1; stop-color:#F56857"/>
   <stop offset="1" style="stop-opacity:1; stop-color:white"/>
  </linearGradient>
  <linearGradient id="id1" gradientUnits="userSpaceOnUse" xlink:href="#id0" x1="6.33" y1="48.65" x2="175.77" y2="-22.15">
  </linearGradient>
  <linearGradient id="id2" gradientUnits="userSpaceOnUse" xlink:href="#id0" x1="6.32" y1="48.65" x2="175.78" y2="-22.15">
  </linearGradient>
  <linearGradient id="id3" gradientUnits="userSpaceOnUse" xlink:href="#id0" x1="6.32" y1="48.64" x2="175.78" y2="-22.15">
  </linearGradient>
  <linearGradient id="id4" gradientUnits="userSpaceOnUse" xlink:href="#id0" x1="6.32" y1="48.64" x2="175.78" y2="-22.15">
  </linearGradient>
  <linearGradient id="id5" gradientUnits="userSpaceOnUse" xlink:href="#id0" x1="6.33" y1="48.65" x2="175.77" y2="-22.15">
  </linearGradient>
 </defs>
 <g id="Layer_x0020_1">
  <metadata id="CorelCorpID_0Corel-Layer"/>
  <g id="_2377135231664">
   <path class="fil0" d="M22.35 24.38c0.49,-0.46 0.49,-1.21 0,-1.67 -0.49,-0.46 -1.29,-0.46 -1.78,0 -0.49,0.46 -0.49,1.2 0,1.67 0.49,0.46 1.29,0.46 1.78,0zm0 0z"/>
   <path class="fil1" d="M34.79 26.05c1.47,-1.38 1.47,-3.62 0,-5 -1.47,-1.38 -3.86,-1.38 -5.33,0 -1.47,1.38 -1.47,3.62 0,5 1.47,1.38 3.86,1.38 5.33,0zm-3.56 -3.33c0.49,-0.46 1.29,-0.46 1.78,0 0.49,0.46 0.49,1.21 0,1.67 -0.49,0.46 -1.29,0.46 -1.78,0 -0.49,-0.46 -0.49,-1.2 0,-1.67zm0 0z"/>
   <path class="fil2" d="M29.46 34.38c-1.47,1.38 -1.47,3.62 0,5 1.47,1.38 3.86,1.38 5.33,0 1.47,-1.38 1.47,-3.62 0,-5 -1.47,-1.38 -3.86,-1.38 -5.33,0zm3.56 3.33c-0.49,0.46 -1.29,0.46 -1.78,0 -0.49,-0.46 -0.49,-1.21 0,-1.67 0.49,-0.46 1.29,-0.46 1.78,0 0.49,0.46 0.49,1.21 0,1.67zm0 0z"/>
   <path class="fil3" d="M22 32.11c0.14,0.64 0.8,1.05 1.48,0.92l17.77 -3.33c0.68,-0.13 1.12,-0.75 0.99,-1.39 -0.14,-0.64 -0.8,-1.05 -1.48,-0.92l-17.77 3.33c-0.68,0.13 -1.12,0.75 -0.99,1.39zm0 0z"/>
   <path class="fil4" d="M38.21 6.67c-0.33,0 -0.65,0.12 -0.89,0.34l-13.19 12.37c-0.49,0.46 -0.49,1.21 0,1.67 0.49,0.46 1.29,0.46 1.78,0l12.31 -11.54 16 15 -28.21 26.45 -16 -15 8.8 -8.25c0.49,-0.46 0.49,-1.21 0,-1.67 -0.49,-0.46 -1.29,-0.46 -1.78,0l-9.69 9.08c-0.49,0.46 -0.49,1.21 0,1.67l17.77 16.66c0.49,0.46 1.29,0.46 1.78,0l29.99 -28.12c0.49,-0.46 0.49,-1.21 0,-1.67l-17.77 -16.66c-0.24,-0.22 -0.56,-0.34 -0.89,-0.34l0 0zm0 0z"/>
   <path class="fil5" d="M62.2 0.35l-5.39 5.06c-3.15,-2.23 -7.49,-2.26 -10.61,-0.09l-4.42 -4.26c-0,-0 -0.01,-0.01 -0.01,-0.01 -1.47,-1.37 -3.85,-1.39 -5.33,0l-35.32 33.26c-1.47,1.38 -1.47,3.62 0,5l4.99 4.67c-1.11,2.99 -0.31,6.37 2.12,8.66 2.43,2.28 6.05,3.04 9.23,1.99l4.99 4.67c1.47,1.38 3.86,1.38 5.33,0l35.48 -33.12c1.47,-1.38 1.47,-3.62 0,-5 -0,-0 -0.01,-0.01 -0.01,-0.01l-4.55 -4.14c2.31,-2.91 2.3,-6.98 -0.1,-9.95l5.39 -5.06c0.49,-0.46 0.49,-1.21 0,-1.67 -0.49,-0.46 -1.29,-0.46 -1.78,0l0 0zm-6.13 15.91c-0.24,0.22 -0.37,0.53 -0.37,0.84 0,0.32 0.14,0.62 0.38,0.84l5.39 4.91c0.49,0.46 0.48,1.2 -0,1.66l-35.48 33.12c-0.49,0.46 -1.29,0.46 -1.78,0l-5.57 -5.22c-0.24,-0.23 -0.56,-0.35 -0.89,-0.35 -0.18,0 -0.36,0.04 -0.53,0.11 -2.42,1.06 -5.32,0.58 -7.22,-1.21 -1.9,-1.78 -2.42,-4.5 -1.29,-6.77 0.23,-0.45 0.13,-0.98 -0.25,-1.33l-5.57 -5.23c-0.49,-0.46 -0.49,-1.21 0,-1.67l35.32 -33.26c0.49,-0.46 1.28,-0.46 1.77,-0l5.23 5.05c0.47,0.45 1.27,0.5 1.79,0.01 2.15,-2.02 5.52,-2.23 8,-0.67l-1.84 1.73c-1.4,-0.63 -3.13,-0.4 -4.29,0.69 -1.47,1.38 -1.47,3.62 0,5 1.47,1.38 3.86,1.38 5.33,0 1.19,-1.11 1.39,-2.74 0.74,-4.02l1.84 -1.73c1.66,2.3 1.47,5.46 -0.71,7.5l0 -0zm-3.64 -5.08c0.49,0.46 0.49,1.2 0,1.67 -0.49,0.46 -1.29,0.46 -1.78,0 -0.49,-0.46 -0.49,-1.21 -0,-1.67 0.49,-0.46 1.29,-0.46 1.78,0zm0 0z"/>
  </g>
 </g>
</svg>
