<?xml version="1.0" encoding="UTF-8"?>
<!DOCTYPE svg PUBLIC "-//W3C//DTD SVG 1.1//EN" "http://www.w3.org/Graphics/SVG/1.1/DTD/svg11.dtd">
<!-- Creator: CorelDRAW 2019 (64-Bit) -->
<svg xmlns="http://www.w3.org/2000/svg" xml:space="preserve" width="11.0914mm" height="10.3982mm" version="1.1" style="shape-rendering:geometricPrecision; text-rendering:geometricPrecision; image-rendering:optimizeQuality; fill-rule:evenodd; clip-rule:evenodd"
viewBox="0 0 76.15 71.39"
 xmlns:xlink="http://www.w3.org/1999/xlink">
 <defs>
  <style type="text/css">
   <![CDATA[
    .fil0 {fill:url(#id0)}
   ]]>
  </style>
  <linearGradient id="id0" gradientUnits="userSpaceOnUse" x1="36.86" y1="91.86" x2="209.36" y2="-49.23">
   <stop offset="0" style="stop-opacity:1; stop-color:#F56857"/>
   <stop offset="0.639216" style="stop-opacity:1; stop-color:#FAB3AB"/>
   <stop offset="1" style="stop-opacity:1; stop-color:white"/>
  </linearGradient>
 </defs>
 <g id="Layer_x0020_1">
  <metadata id="CorelCorpID_0Corel-Layer"/>
  <path class="fil0" d="M66.63 57.59l0 -5.23 -44.74 -0 2.86 -5.23 43.79 -4.28 7.61 -28.56 -58.54 0 -3.33 -14.28 -14.28 0 0 4.76 10.47 0 9.99 39.98 -6.19 12.37 0 7.14c0,3.81 3.33,7.14 7.14,7.14 3.81,0 7.14,-3.33 7.14,-7.14 0,-3.81 -3.33,-7.14 -7.14,-7.14l35.7 0 0 7.14c0,3.81 3.33,7.14 7.14,7.14 3.81,0 7.14,-3.33 7.14,-7.14 0,-3.33 -1.9,-5.71 -4.76,-6.66zm-47.59 -38.55l12.91 0 2.91 0 35.11 0 -5.23 19.04 -30.09 3.22 -2.65 0.28 -7.23 0.78 -5.71 -23.32 0 0z"/>
 </g>
</svg>
