<?xml version="1.0" encoding="UTF-8"?>
<!DOCTYPE svg PUBLIC "-//W3C//DTD SVG 1.1//EN" "http://www.w3.org/Graphics/SVG/1.1/DTD/svg11.dtd">
<!-- Creator: CorelDRAW 2019 (64-Bit) -->
<svg xmlns="http://www.w3.org/2000/svg" xml:space="preserve" width="12.9007mm" height="12.9007mm" version="1.1" style="shape-rendering:geometricPrecision; text-rendering:geometricPrecision; image-rendering:optimizeQuality; fill-rule:evenodd; clip-rule:evenodd"
viewBox="0 0 164.91 164.91"
 xmlns:xlink="http://www.w3.org/1999/xlink">
 <defs>
  <style type="text/css">
   <![CDATA[
    .fil3 {fill:url(#id0)}
    .fil6 {fill:url(#id1)}
    .fil15 {fill:url(#id2)}
    .fil9 {fill:url(#id3)}
    .fil16 {fill:url(#id4)}
    .fil5 {fill:url(#id5)}
    .fil2 {fill:url(#id6)}
    .fil0 {fill:url(#id7)}
    .fil14 {fill:url(#id8)}
    .fil13 {fill:url(#id9)}
    .fil4 {fill:url(#id10)}
    .fil10 {fill:url(#id11)}
    .fil12 {fill:url(#id12)}
    .fil11 {fill:url(#id13)}
    .fil1 {fill:url(#id14)}
    .fil8 {fill:url(#id15)}
    .fil7 {fill:url(#id16)}
   ]]>
  </style>
  <linearGradient id="id0" gradientUnits="userSpaceOnUse" x1="29.98" y1="136.3" x2="301.54" y2="-73">
   <stop offset="0" style="stop-opacity:1; stop-color:#F56857"/>
   <stop offset="1" style="stop-opacity:1; stop-color:white"/>
  </linearGradient>
  <linearGradient id="id1" gradientUnits="userSpaceOnUse" xlink:href="#id0" x1="29.97" y1="136.29" x2="301.53" y2="-73.01">
  </linearGradient>
  <linearGradient id="id2" gradientUnits="userSpaceOnUse" xlink:href="#id0" x1="29.96" y1="136.28" x2="301.54" y2="-72.99">
  </linearGradient>
  <linearGradient id="id3" gradientUnits="userSpaceOnUse" xlink:href="#id0" x1="29.98" y1="136.29" x2="301.54" y2="-73.01">
  </linearGradient>
  <linearGradient id="id4" gradientUnits="userSpaceOnUse" xlink:href="#id0" x1="29.96" y1="136.28" x2="301.54" y2="-72.99">
  </linearGradient>
  <linearGradient id="id5" gradientUnits="userSpaceOnUse" xlink:href="#id0" x1="29.97" y1="136.27" x2="301.52" y2="-72.99">
  </linearGradient>
  <linearGradient id="id6" gradientUnits="userSpaceOnUse" xlink:href="#id0" x1="29.98" y1="136.3" x2="301.54" y2="-73">
  </linearGradient>
  <linearGradient id="id7" gradientUnits="userSpaceOnUse" xlink:href="#id0" x1="29.95" y1="136.25" x2="301.54" y2="-72.99">
  </linearGradient>
  <linearGradient id="id8" gradientUnits="userSpaceOnUse" xlink:href="#id0" x1="29.96" y1="136.29" x2="301.56" y2="-73">
  </linearGradient>
  <linearGradient id="id9" gradientUnits="userSpaceOnUse" xlink:href="#id0" x1="29.96" y1="136.29" x2="301.55" y2="-73">
  </linearGradient>
  <linearGradient id="id10" gradientUnits="userSpaceOnUse" xlink:href="#id0" x1="29.96" y1="136.29" x2="301.55" y2="-73">
  </linearGradient>
  <linearGradient id="id11" gradientUnits="userSpaceOnUse" xlink:href="#id0" x1="29.96" y1="136.27" x2="301.51" y2="-72.99">
  </linearGradient>
  <linearGradient id="id12" gradientUnits="userSpaceOnUse" xlink:href="#id0" x1="29.97" y1="136.29" x2="301.55" y2="-73.01">
  </linearGradient>
  <linearGradient id="id13" gradientUnits="userSpaceOnUse" xlink:href="#id0" x1="29.96" y1="136.29" x2="301.56" y2="-73">
  </linearGradient>
  <linearGradient id="id14" gradientUnits="userSpaceOnUse" xlink:href="#id0" x1="29.96" y1="136.28" x2="301.54" y2="-73">
  </linearGradient>
  <linearGradient id="id15" gradientUnits="userSpaceOnUse" xlink:href="#id0" x1="29.97" y1="136.26" x2="301.53" y2="-72.98">
  </linearGradient>
  <linearGradient id="id16" gradientUnits="userSpaceOnUse" xlink:href="#id0" x1="29.95" y1="136.26" x2="301.54" y2="-72.97">
  </linearGradient>
 </defs>
 <g id="Layer_x0020_1">
  <metadata id="CorelCorpID_0Corel-Layer"/>
  <g id="_2377152120864">
   <g>
    <g>
     <path class="fil0" d="M84.65 159.41c-0.6,-0.6 -1.43,-0.94 -2.28,-0.94 -0.85,0 -1.68,0.34 -2.28,0.94 -0.6,0.6 -0.94,1.43 -0.94,2.28 0,0.85 0.35,1.68 0.94,2.28 0.6,0.6 1.43,0.94 2.28,0.94 0.85,0 1.68,-0.35 2.28,-0.94 0.6,-0.6 0.94,-1.43 0.94,-2.28 0,-0.85 -0.35,-1.68 -0.94,-2.28z"/>
    </g>
   </g>
   <g>
    <g>
     <path class="fil1" d="M147.7 105.35l-10.74 -2.57 0 -4.26c5.96,-3.77 9.94,-10.42 9.94,-17.98l0 -12c0,-11.72 -9.54,-21.26 -21.26,-21.26 -6.32,0 -12.01,2.78 -15.9,7.17 -3.41,-11.82 -14.33,-20.49 -27.24,-20.49l-0 0c-12.93,0 -23.86,8.7 -27.25,20.55 -3.9,-4.43 -9.6,-7.23 -15.95,-7.23 -11.72,0 -21.26,9.54 -21.26,21.26l0 12c0,7.56 3.97,14.21 9.94,17.98l0 4.26 -10.74 2.57c-10.14,2.42 -17.21,11.39 -17.21,21.81l0 21.65c0,1.78 1.44,3.22 3.22,3.22l25.76 0 0 9.66c0,1.78 1.44,3.22 3.22,3.22l35.34 0c1.78,0 3.22,-1.44 3.22,-3.22 0,-1.78 -1.44,-3.22 -3.22,-3.22l-14.38 0 0 -14.18c0,-1.78 -1.44,-3.22 -3.22,-3.22 -1.78,0 -3.22,1.44 -3.22,3.22l0 14.18 -11.29 0 0 -14.53c0,-10.92 7.42,-20.33 18.04,-22.88l15.84 -3.8 10.19 23.19c0.51,1.17 1.67,1.93 2.95,1.93l0 0c1.28,0 2.44,-0.76 2.95,-1.93l10.18 -23.16 15.79 3.77c10.63,2.54 18.06,11.95 18.06,22.88l0 3.59c-0.16,0.39 -0.26,0.81 -0.26,1.26 0,0.45 0.09,0.87 0.26,1.26l0 8.4 -11.23 0 0 -14.18c0,-1.78 -1.44,-3.22 -3.22,-3.22 -1.78,0 -3.22,1.44 -3.22,3.22l0 14.18 -15.77 0c-1.78,0 -3.22,1.44 -3.22,3.22 0,1.78 1.44,3.22 3.22,3.22l36.66 0c1.78,0 3.22,-1.44 3.22,-3.22l0 -9.66 25.82 0c1.78,0 3.22,-1.44 3.22,-3.22l0 -21.65c0,-10.42 -7.08,-19.39 -17.21,-21.81zm-22.07 -51.63c8.17,0 14.82,6.65 14.82,14.82l0 0.8 0 0.32 -9.21 0c-6.96,0 -13.8,-1.83 -19.82,-5.29 1.8,-6.15 7.5,-10.65 14.22,-10.65zm-14.82 26.3c0.01,-0.33 0.02,-8.66 0.02,-8.66 6.33,3.11 13.31,4.75 20.4,4.75l9.21 0 0 4.44c0,8.17 -6.65,14.82 -14.82,14.82 -8.17,0 -14.82,-6.65 -14.82,-14.82l0 -0.53zm-50.23 -17.71c0,-12.08 9.83,-21.9 21.9,-21.9 12.08,0 21.9,9.83 21.9,21.9l0 0.42 -11.95 -7.02c-1.36,-0.8 -3.09,-0.5 -4.1,0.71 -4.64,5.54 -11.46,8.72 -18.69,8.72l-9.06 0 0 -2.83zm-36.12 7.03l0 -0.8c0,-8.17 6.65,-14.82 14.82,-14.82 6.72,0 12.42,4.5 14.22,10.65 -6.03,3.46 -12.87,5.29 -19.82,5.29l-9.21 0 0 -0.32zm0 11.21l0 -4.44 9.21 0c7.1,0 14.08,-1.63 20.42,-4.76l0 9.2c0,8.17 -6.65,14.82 -14.82,14.82 -8.17,0 -14.82,-6.65 -14.82,-14.82zm4.51 63.4l0 1.65 -9.65 0 0 -14.31c0,-1.78 -1.44,-3.22 -3.22,-3.22 -1.78,0 -3.22,1.44 -3.22,3.22l0 14.31 -6.44 0 0 -18.43c0,-7.43 5.05,-13.82 12.27,-15.54l10.21 -2.44 6.66 15.96c-4.17,5.18 -6.61,11.74 -6.61,18.8zm10.3 -26.66l-4.89 -11.72c0.01,-0.08 0.01,-0.15 0.01,-0.23l0 -4.1c1.57,0.37 3.2,0.57 4.88,0.57 1.67,0 3.3,-0.2 4.86,-0.57l0 3.89c-0,0.06 -0.01,0.12 -0.01,0.18 0,0.1 0.01,0.2 0.02,0.3l-4.87 11.67zm12.68 -2.47c-1.9,0.46 -3.72,1.09 -5.45,1.87l3.14 -7.51 10.21 2.45c0.79,0.19 1.56,0.44 2.31,0.75l-10.21 2.45zm15.99 -6.71c-2.02,-1.25 -4.24,-2.18 -6.58,-2.74l-10.78 -2.58 0 -4.22c2.68,-1.69 4.96,-3.96 6.66,-6.64 2.43,4.74 6.16,8.72 10.71,11.45l0 4.74zm22.54 4.78l-8.04 18.29 -8.06 -18.33 0 -6.64c2.57,0.77 5.29,1.18 8.1,1.18 2.78,0 5.46,-0.4 8,-1.15l0 6.65zm-8 -11.94c-12.08,0 -21.9,-9.83 -21.9,-21.9l0 -7.45 9.06 0c8.22,0 16.01,-3.25 21.77,-9l12.96 7.61 0 9.6c-0.4,11.73 -10.06,21.15 -21.88,21.15zm14.44 2.48l0 0c4.58,-2.72 8.33,-6.7 10.78,-11.45 1.69,2.65 3.96,4.9 6.62,6.58l0 4.22 -10.78 2.58c-2.36,0.57 -4.59,1.5 -6.62,2.77l0 -4.7zm15.94 11.4l-10.19 -2.43c0.77,-0.32 1.56,-0.58 2.37,-0.77l10.19 -2.44 3.15 7.54c-1.75,-0.8 -3.59,-1.44 -5.52,-1.9zm7.88 -9.16c0.01,-0.12 0.02,-0.23 0.02,-0.35 0,-0.03 0,-0.06 -0,-0.09l0 -3.98c1.56,0.37 3.19,0.57 4.86,0.57 1.68,0 3.31,-0.2 4.88,-0.57l0 4.1c0,0.06 0,0.12 0.01,0.17l-4.92 11.78 -4.85 -11.62zm37.72 39.93l-6.44 0 0 -14.31c0,-1.78 -1.44,-3.22 -3.22,-3.22 -1.78,0 -3.22,1.44 -3.22,3.22l0 14.31 -9.72 0 0 -1.63c0,-7.05 -2.43,-13.61 -6.59,-18.78l6.68 -16.01 10.23 2.45c7.22,1.72 12.27,8.12 12.27,15.54l0 18.43z"/>
    </g>
   </g>
   <g>
    <g>
     <path class="fil2" d="M73.93 75.43c-0.6,-0.6 -1.43,-0.94 -2.28,-0.94 -0.85,0 -1.68,0.35 -2.28,0.94 -0.6,0.6 -0.94,1.43 -0.94,2.28 0,0.85 0.34,1.68 0.94,2.28 0.6,0.6 1.43,0.94 2.28,0.94 0.85,0 1.68,-0.35 2.28,-0.94 0.6,-0.6 0.94,-1.43 0.94,-2.28 0,-0.85 -0.34,-1.68 -0.94,-2.28z"/>
    </g>
   </g>
   <g>
    <g>
     <path class="fil3" d="M95.47 75.43c-0.6,-0.6 -1.43,-0.94 -2.28,-0.94 -0.85,0 -1.68,0.35 -2.28,0.94 -0.6,0.6 -0.94,1.43 -0.94,2.28 0,0.85 0.34,1.68 0.94,2.28 0.6,0.6 1.43,0.94 2.28,0.94 0.85,0 1.68,-0.35 2.28,-0.94 0.6,-0.6 0.94,-1.43 0.94,-2.28 0,-0.85 -0.34,-1.68 -0.94,-2.28z"/>
    </g>
   </g>
   <g>
    <g>
     <path class="fil4" d="M88.66 86.27c-1.26,-1.26 -3.3,-1.26 -4.56,0 -0.95,0.95 -2.5,0.95 -3.45,0 -1.26,-1.26 -3.3,-1.26 -4.55,0 -1.26,1.26 -1.26,3.3 0,4.56 1.73,1.73 4.01,2.6 6.28,2.6 2.28,0 4.55,-0.87 6.28,-2.6 1.26,-1.26 1.26,-3.3 0,-4.56z"/>
    </g>
   </g>
   <g>
    <g>
     <path class="fil5" d="M133.18 17.39l-2.21 0c-1.78,0 -3.22,1.44 -3.22,3.22 0,1.78 1.44,3.22 3.22,3.22l2.21 0c1.78,0 3.22,-1.44 3.22,-3.22 0,-1.78 -1.44,-3.22 -3.22,-3.22z"/>
    </g>
   </g>
   <g>
    <g>
     <path class="fil6" d="M148.81 17.39l-2.21 0c-1.78,0 -3.22,1.44 -3.22,3.22 0,1.78 1.44,3.22 3.22,3.22l2.21 0c1.78,0 3.22,-1.44 3.22,-3.22 0,-1.78 -1.44,-3.22 -3.22,-3.22z"/>
    </g>
   </g>
   <g>
    <g>
     <path class="fil7" d="M139.89 24.1c-1.78,0 -3.22,1.44 -3.22,3.22l0 2.21c0,1.78 1.44,3.22 3.22,3.22 1.78,0 3.22,-1.44 3.22,-3.22l0 -2.21c0,-1.78 -1.44,-3.22 -3.22,-3.22z"/>
    </g>
   </g>
   <g>
    <g>
     <path class="fil8" d="M139.89 8.47c-1.78,0 -3.22,1.44 -3.22,3.22l0 2.21c0,1.78 1.44,3.22 3.22,3.22 1.78,0 3.22,-1.44 3.22,-3.22l0 -2.21c0,-1.78 -1.44,-3.22 -3.22,-3.22z"/>
    </g>
   </g>
   <g>
    <g>
     <path class="fil9" d="M18.13 17.39l-2.21 0c-1.78,0 -3.22,1.44 -3.22,3.22 0,1.78 1.44,3.22 3.22,3.22l2.21 0c1.78,0 3.22,-1.44 3.22,-3.22 0,-1.78 -1.44,-3.22 -3.22,-3.22z"/>
    </g>
   </g>
   <g>
    <g>
     <path class="fil10" d="M33.76 17.39l-2.21 0c-1.78,0 -3.22,1.44 -3.22,3.22 0,1.78 1.44,3.22 3.22,3.22l2.21 0c1.78,0 3.22,-1.44 3.22,-3.22 0,-1.78 -1.44,-3.22 -3.22,-3.22z"/>
    </g>
   </g>
   <g>
    <g>
     <path class="fil11" d="M24.84 24.1c-1.78,0 -3.22,1.44 -3.22,3.22l0 2.21c0,1.78 1.44,3.22 3.22,3.22 1.78,0 3.22,-1.44 3.22,-3.22l0 -2.21c0,-1.78 -1.44,-3.22 -3.22,-3.22z"/>
    </g>
   </g>
   <g>
    <g>
     <path class="fil12" d="M24.84 8.47c-1.78,0 -3.22,1.44 -3.22,3.22l0 2.21c0,1.78 1.44,3.22 3.22,3.22 1.78,0 3.22,-1.44 3.22,-3.22l0 -2.21c0,-1.78 -1.44,-3.22 -3.22,-3.22z"/>
    </g>
   </g>
   <g>
    <g>
     <path class="fil13" d="M82.46 12.27c-1.78,0 -3.22,1.44 -3.22,3.22l0 8.48c0,1.78 1.44,3.22 3.22,3.22 1.78,0 3.22,-1.44 3.22,-3.22l0 -8.48c0,-1.78 -1.44,-3.22 -3.22,-3.22z"/>
    </g>
   </g>
   <g>
    <g>
     <path class="fil14" d="M84.73 0.94c-0.6,-0.6 -1.43,-0.94 -2.28,-0.94 -0.85,0 -1.68,0.35 -2.28,0.94 -0.6,0.6 -0.94,1.43 -0.94,2.28 0,0.85 0.34,1.68 0.94,2.28 0.6,0.6 1.43,0.94 2.28,0.94 0.85,0 1.68,-0.34 2.28,-0.94 0.6,-0.6 0.94,-1.43 0.94,-2.28 0,-0.85 -0.34,-1.68 -0.94,-2.28z"/>
    </g>
   </g>
   <g>
    <g>
     <path class="fil15" d="M71.17 12.92l-4.71 -4.71c-1.26,-1.26 -3.3,-1.26 -4.56,0 -1.26,1.26 -1.26,3.3 0,4.56l4.71 4.71c0.63,0.63 1.45,0.94 2.28,0.94 0.82,0 1.65,-0.31 2.28,-0.94 1.26,-1.26 1.26,-3.3 0,-4.55z"/>
    </g>
   </g>
   <g>
    <g>
     <path class="fil16" d="M103.01 8.03c-1.26,-1.26 -3.3,-1.26 -4.56,0l-4.87 4.87c-1.26,1.26 -1.26,3.3 0,4.56 0.63,0.63 1.45,0.94 2.28,0.94 0.82,0 1.65,-0.31 2.28,-0.94l4.87 -4.87c1.26,-1.26 1.26,-3.3 0,-4.55z"/>
    </g>
   </g>
   <g>
   </g>
   <g>
   </g>
   <g>
   </g>
   <g>
   </g>
   <g>
   </g>
   <g>
   </g>
   <g>
   </g>
   <g>
   </g>
   <g>
   </g>
   <g>
   </g>
   <g>
   </g>
   <g>
   </g>
   <g>
   </g>
   <g>
   </g>
   <g>
   </g>
  </g>
 </g>
</svg>
